<?xml version="1.0" ?><!DOCTYPE svg  PUBLIC '-//W3C//DTD SVG 1.1//EN'  'http://www.w3.org/Graphics/SVG/1.1/DTD/svg11.dtd'><!-- Uploaded to: SVG Repo, www.svgrepo.com, Generator: SVG Repo Mixer Tools -->
<svg fill="#000000" width="800px" height="800px" viewBox="0 0 32 32" style="fill-rule:evenodd;clip-rule:evenodd;stroke-linejoin:round;stroke-miterlimit:2;" version="1.1" xml:space="preserve" xmlns="http://www.w3.org/2000/svg" xmlns:serif="http://www.serif.com/" xmlns:xlink="http://www.w3.org/1999/xlink"><path d="M29,8c0,-1.326 -0.527,-2.598 -1.464,-3.536c-0.938,-0.937 -2.21,-1.464 -3.536,-1.464c-4.439,-0 -11.561,-0 -16,-0c-1.326,-0 -2.598,0.527 -3.536,1.464c-0.937,0.938 -1.464,2.21 -1.464,3.536c-0,4.439 -0,11.561 -0,16c-0,1.326 0.527,2.598 1.464,3.536c0.938,0.937 2.21,1.464 3.536,1.464c4.439,-0 11.561,0 16,0c1.326,0 2.598,-0.527 3.536,-1.464c0.937,-0.938 1.464,-2.21 1.464,-3.536l-0,-16Zm-2.178,6.903l-0.676,-1.003c-0.929,-1.379 -2.483,-2.205 -4.146,-2.205c-1.663,-0 -3.217,0.826 -4.146,2.205c-0,0 -3.021,4.481 -3.021,4.481l-0.687,-1.019c-0.929,-1.379 -2.483,-2.206 -4.146,-2.206c-1.663,0 -3.217,0.827 -4.146,2.206c-0.246,0.365 -0.489,0.726 -0.723,1.072c-0.309,0.458 -0.187,1.08 0.27,1.388c0.458,0.309 1.08,0.188 1.388,-0.27l0.723,-1.072c0.558,-0.828 1.49,-1.324 2.488,-1.324c0.998,0 1.93,0.496 2.488,1.323c-0,0 1.516,2.25 1.516,2.25c0.186,0.276 0.497,0.441 0.829,0.441c0.333,0 0.644,-0.165 0.83,-0.441l3.849,-5.711c0.558,-0.827 1.49,-1.323 2.488,-1.323c0.998,-0 1.93,0.496 2.488,1.323c-0,-0 0.676,1.003 0.676,1.003c0.308,0.458 0.93,0.579 1.388,0.27c0.458,-0.308 0.579,-0.93 0.27,-1.388Zm-12.822,-7.903c-1.656,0 -3,1.344 -3,3c0,1.656 1.344,3 3,3c1.656,0 3,-1.344 3,-3c0,-1.656 -1.344,-3 -3,-3Z"/><g id="Icon"/></svg>