<?xml version="1.0" ?><!DOCTYPE svg  PUBLIC '-//W3C//DTD SVG 1.1//EN'  'http://www.w3.org/Graphics/SVG/1.1/DTD/svg11.dtd'><!-- Uploaded to: SVG Repo, www.svgrepo.com, Generator: SVG Repo Mixer Tools -->
<svg fill="#000000" width="800px" height="800px" viewBox="0 0 32 32" style="fill-rule:evenodd;clip-rule:evenodd;stroke-linejoin:round;stroke-miterlimit:2;" version="1.1" xml:space="preserve" xmlns="http://www.w3.org/2000/svg" xmlns:serif="http://www.serif.com/" xmlns:xlink="http://www.w3.org/1999/xlink"><path d="M24.787,19.13l2.122,-2.121c3.317,-3.317 3.317,-8.704 -0,-12.021c-3.318,-3.317 -8.704,-3.317 -12.021,0c-0,0 -2.122,2.122 -2.122,2.122c-0.585,0.585 -0.585,1.535 0,2.121c0.586,0.585 1.536,0.585 2.122,-0l2.121,-2.121c2.146,-2.147 5.632,-2.147 7.778,-0c2.147,2.146 2.147,5.631 0,7.778c0,-0 -2.121,2.121 -2.121,2.121c-0.586,0.585 -0.586,1.536 -0,2.121c0.585,0.586 1.536,0.586 2.121,0Z"/><path d="M7.11,12.766l-2.122,2.122c-3.317,3.317 -3.317,8.703 0,12.021c3.317,3.317 8.704,3.317 12.021,-0c0,-0 2.121,-2.122 2.121,-2.122c0.586,-0.585 0.586,-1.536 0,-2.121c-0.585,-0.586 -1.536,-0.586 -2.121,-0l-2.121,2.121c-2.147,2.147 -5.632,2.147 -7.778,0c-2.147,-2.146 -2.147,-5.632 -0,-7.778c-0,0 2.121,-2.121 2.121,-2.121c0.585,-0.586 0.585,-1.536 -0,-2.122c-0.586,-0.585 -1.536,-0.585 -2.121,0Z"/><path d="M11.352,22.666l11.314,-11.314c0.585,-0.585 0.585,-1.536 -0,-2.121c-0.586,-0.586 -1.536,-0.586 -2.121,-0l-11.314,11.314c-0.586,0.585 -0.586,1.535 -0,2.121c0.585,0.585 1.536,0.585 2.121,-0Z"/><g id="Icon"/></svg>